<mxfile host="65bd71144e">
    <diagram id="z0L66bsuY1yqKVOYkw3Q" name="Page-1">
        <mxGraphModel dx="1971" dy="1719" grid="1" gridSize="10" guides="1" tooltips="1" connect="1" arrows="1" fold="1" page="1" pageScale="1" pageWidth="850" pageHeight="1100" math="0" shadow="0">
            <root>
                <mxCell id="0"/>
                <mxCell id="1" parent="0"/>
                <mxCell id="5" style="edgeStyle=orthogonalEdgeStyle;html=1;exitX=1;exitY=0.5;exitDx=0;exitDy=0;entryX=0;entryY=0.5;entryDx=0;entryDy=0;curved=1;" edge="1" parent="1" source="2" target="3">
                    <mxGeometry relative="1" as="geometry"/>
                </mxCell>
                <mxCell id="2" value="&lt;font style=&quot;font-size: 24px;&quot;&gt;React App&lt;/font&gt;" style="rounded=1;whiteSpace=wrap;html=1;" vertex="1" parent="1">
                    <mxGeometry x="-50" y="192.5" width="160" height="75" as="geometry"/>
                </mxCell>
                <mxCell id="32" style="edgeStyle=orthogonalEdgeStyle;curved=1;sketch=1;html=1;exitX=1;exitY=0.5;exitDx=0;exitDy=0;entryX=0;entryY=0.5;entryDx=0;entryDy=0;shadow=1;endArrow=ERone;endFill=0;" edge="1" parent="1" source="3" target="18">
                    <mxGeometry relative="1" as="geometry"/>
                </mxCell>
                <mxCell id="37" style="edgeStyle=orthogonalEdgeStyle;curved=1;sketch=1;html=1;exitX=1;exitY=0.5;exitDx=0;exitDy=0;entryX=0;entryY=0.5;entryDx=0;entryDy=0;shadow=1;fontSize=14;endArrow=ERone;endFill=0;" edge="1" parent="1" source="3" target="36">
                    <mxGeometry relative="1" as="geometry"/>
                </mxCell>
                <mxCell id="51" style="edgeStyle=orthogonalEdgeStyle;curved=1;sketch=1;html=1;exitX=1;exitY=0.5;exitDx=0;exitDy=0;entryX=0;entryY=0.5;entryDx=0;entryDy=0;shadow=1;fontSize=14;endArrow=ERone;endFill=0;" edge="1" parent="1" source="3" target="47">
                    <mxGeometry relative="1" as="geometry"/>
                </mxCell>
                <mxCell id="53" style="edgeStyle=orthogonalEdgeStyle;curved=1;sketch=1;html=1;entryX=0;entryY=0.5;entryDx=0;entryDy=0;shadow=1;fontSize=14;endArrow=ERone;endFill=0;startArrow=none;" edge="1" parent="1" target="41">
                    <mxGeometry relative="1" as="geometry">
                        <mxPoint x="280" y="230" as="sourcePoint"/>
                    </mxGeometry>
                </mxCell>
                <mxCell id="59" style="edgeStyle=orthogonalEdgeStyle;curved=1;sketch=1;html=1;entryX=0;entryY=0.5;entryDx=0;entryDy=0;shadow=1;fontSize=14;endArrow=ERone;endFill=0;startArrow=none;" edge="1" parent="1" target="46">
                    <mxGeometry relative="1" as="geometry">
                        <mxPoint x="280" y="230" as="sourcePoint"/>
                    </mxGeometry>
                </mxCell>
                <mxCell id="3" value="&lt;font style=&quot;font-size: 18px;&quot;&gt;BrowserRouter&lt;/font&gt;" style="rounded=1;whiteSpace=wrap;html=1;" vertex="1" parent="1">
                    <mxGeometry x="100" y="210" width="180" height="40" as="geometry"/>
                </mxCell>
                <mxCell id="18" value="&lt;div style=&quot;text-align: left;&quot;&gt;&lt;span style=&quot;background-color: initial;&quot;&gt;path: &quot;/about&quot;&lt;/span&gt;&lt;/div&gt;&lt;div style=&quot;text-align: left;&quot;&gt;&lt;span style=&quot;background-color: initial;&quot;&gt;Componenet: &amp;lt;About/&amp;gt;&lt;/span&gt;&lt;/div&gt;" style="rounded=1;whiteSpace=wrap;html=1;fillColor=#60a917;fontColor=#ffffff;strokeColor=#2D7600;" vertex="1" parent="1">
                    <mxGeometry x="460" y="-220" width="240" height="60" as="geometry"/>
                </mxCell>
                <mxCell id="36" value="&lt;div style=&quot;text-align: left;&quot;&gt;&lt;span style=&quot;background-color: initial;&quot;&gt;path: &quot;/login&quot;&lt;/span&gt;&lt;/div&gt;&lt;div style=&quot;text-align: left;&quot;&gt;&lt;span style=&quot;background-color: initial;&quot;&gt;Componenet: &amp;lt;Login/&amp;gt;&lt;/span&gt;&lt;/div&gt;" style="rounded=1;whiteSpace=wrap;html=1;fillColor=#60a917;fontColor=#ffffff;strokeColor=#2D7600;" vertex="1" parent="1">
                    <mxGeometry x="460" y="-140" width="240" height="60" as="geometry"/>
                </mxCell>
                <mxCell id="38" value="&lt;div style=&quot;text-align: left;&quot;&gt;&lt;span style=&quot;background-color: initial;&quot;&gt;path: &quot;/register-patient&quot;&lt;/span&gt;&lt;/div&gt;&lt;div style=&quot;text-align: left;&quot;&gt;&lt;span style=&quot;background-color: initial;&quot;&gt;Componenet: &amp;lt;RegisterPatient/&amp;gt;&lt;/span&gt;&lt;/div&gt;" style="rounded=1;whiteSpace=wrap;html=1;fillColor=#d80073;fontColor=#ffffff;strokeColor=#A50040;" vertex="1" parent="1">
                    <mxGeometry x="800" y="500" width="240" height="60" as="geometry"/>
                </mxCell>
                <mxCell id="39" value="&lt;div style=&quot;text-align: left;&quot;&gt;&lt;span style=&quot;background-color: initial;&quot;&gt;path: &quot;/upload-dicom&quot;&lt;/span&gt;&lt;/div&gt;&lt;div style=&quot;text-align: left;&quot;&gt;&lt;span style=&quot;background-color: initial;&quot;&gt;Componenet: &amp;lt;UploadDicomImage/&amp;gt;&lt;/span&gt;&lt;/div&gt;" style="rounded=1;whiteSpace=wrap;html=1;fillColor=#d80073;fontColor=#ffffff;strokeColor=#A50040;" vertex="1" parent="1">
                    <mxGeometry x="800" y="310" width="240" height="60" as="geometry"/>
                </mxCell>
                <mxCell id="40" value="&lt;div style=&quot;text-align: left;&quot;&gt;&lt;span style=&quot;background-color: initial;&quot;&gt;path: &quot;/upload-png&quot;&lt;/span&gt;&lt;/div&gt;&lt;div style=&quot;text-align: left;&quot;&gt;&lt;span style=&quot;background-color: initial;&quot;&gt;Componenet: &amp;lt;UploadImage/&amp;gt;&lt;/span&gt;&lt;/div&gt;" style="rounded=1;whiteSpace=wrap;html=1;fillColor=#d80073;fontColor=#ffffff;strokeColor=#A50040;" vertex="1" parent="1">
                    <mxGeometry x="800" y="400" width="240" height="60" as="geometry"/>
                </mxCell>
                <mxCell id="63" style="edgeStyle=orthogonalEdgeStyle;curved=1;sketch=1;html=1;exitX=1;exitY=0.5;exitDx=0;exitDy=0;entryX=0;entryY=0.5;entryDx=0;entryDy=0;shadow=1;fontSize=14;endArrow=ERone;endFill=0;fillColor=#d80073;strokeColor=#A50040;" edge="1" parent="1" source="41" target="39">
                    <mxGeometry relative="1" as="geometry"/>
                </mxCell>
                <mxCell id="64" style="edgeStyle=orthogonalEdgeStyle;curved=1;sketch=1;html=1;exitX=1;exitY=0.5;exitDx=0;exitDy=0;entryX=0;entryY=0.5;entryDx=0;entryDy=0;shadow=1;fontSize=14;endArrow=ERone;endFill=0;fillColor=#d80073;strokeColor=#A50040;" edge="1" parent="1" source="41" target="40">
                    <mxGeometry relative="1" as="geometry"/>
                </mxCell>
                <mxCell id="65" style="edgeStyle=orthogonalEdgeStyle;curved=1;sketch=1;html=1;exitX=1;exitY=0.5;exitDx=0;exitDy=0;entryX=0;entryY=0.5;entryDx=0;entryDy=0;shadow=1;fontSize=14;endArrow=ERone;endFill=0;fillColor=#d80073;strokeColor=#A50040;" edge="1" parent="1" source="41" target="38">
                    <mxGeometry relative="1" as="geometry"/>
                </mxCell>
                <mxCell id="66" style="edgeStyle=orthogonalEdgeStyle;curved=1;sketch=1;html=1;exitX=1;exitY=0.5;exitDx=0;exitDy=0;entryX=0;entryY=0.5;entryDx=0;entryDy=0;shadow=1;fontSize=14;endArrow=ERone;endFill=0;fillColor=#d80073;strokeColor=#A50040;" edge="1" parent="1" source="41" target="50">
                    <mxGeometry relative="1" as="geometry"/>
                </mxCell>
                <mxCell id="67" style="edgeStyle=orthogonalEdgeStyle;curved=1;sketch=1;html=1;exitX=1;exitY=0.5;exitDx=0;exitDy=0;entryX=0;entryY=0.5;entryDx=0;entryDy=0;shadow=1;fontSize=14;endArrow=ERone;endFill=0;fillColor=#d80073;strokeColor=#A50040;" edge="1" parent="1" source="41" target="49">
                    <mxGeometry relative="1" as="geometry"/>
                </mxCell>
                <mxCell id="79" style="edgeStyle=orthogonalEdgeStyle;curved=1;sketch=1;html=1;exitX=1;exitY=0.5;exitDx=0;exitDy=0;entryX=0;entryY=0.5;entryDx=0;entryDy=0;shadow=1;fontSize=14;endArrow=ERone;endFill=0;fillColor=#d80073;strokeColor=#A50040;" edge="1" parent="1" source="41" target="78">
                    <mxGeometry relative="1" as="geometry"/>
                </mxCell>
                <mxCell id="41" value="&lt;div style=&quot;text-align: left;&quot;&gt;&lt;span style=&quot;background-color: initial;&quot;&gt;path: &quot;/dashboard&quot;&lt;/span&gt;&lt;/div&gt;&lt;div style=&quot;text-align: left;&quot;&gt;&lt;span style=&quot;background-color: initial;&quot;&gt;Componenet: &amp;lt;Dashboard/&amp;gt;&lt;/span&gt;&lt;/div&gt;" style="rounded=1;whiteSpace=wrap;html=1;fillColor=#d80073;fontColor=#ffffff;strokeColor=#A50040;" vertex="1" parent="1">
                    <mxGeometry x="410" y="540" width="240" height="60" as="geometry"/>
                </mxCell>
                <mxCell id="46" value="&lt;div style=&quot;text-align: left;&quot;&gt;&lt;span style=&quot;background-color: initial;&quot;&gt;path: &quot;/signup&quot;&lt;/span&gt;&lt;/div&gt;&lt;div style=&quot;text-align: left;&quot;&gt;&lt;span style=&quot;background-color: initial;&quot;&gt;Componenet: &amp;lt;Register/&amp;gt;&lt;/span&gt;&lt;/div&gt;" style="rounded=1;whiteSpace=wrap;html=1;fillColor=#60a917;fontColor=#ffffff;strokeColor=#2D7600;" vertex="1" parent="1">
                    <mxGeometry x="460" y="-70" width="240" height="60" as="geometry"/>
                </mxCell>
                <mxCell id="47" value="&lt;div style=&quot;text-align: left;&quot;&gt;&lt;span style=&quot;background-color: initial;&quot;&gt;path: &quot;/&quot;&lt;/span&gt;&lt;/div&gt;&lt;div style=&quot;text-align: left;&quot;&gt;&lt;span style=&quot;background-color: initial;&quot;&gt;Componenet: &amp;lt;LandingPage/&amp;gt;&lt;/span&gt;&lt;/div&gt;" style="rounded=1;whiteSpace=wrap;html=1;fillColor=#60a917;fontColor=#ffffff;strokeColor=#2D7600;" vertex="1" parent="1">
                    <mxGeometry x="460" y="-290" width="240" height="60" as="geometry"/>
                </mxCell>
                <mxCell id="77" style="edgeStyle=orthogonalEdgeStyle;curved=1;sketch=1;html=1;exitX=1;exitY=0.5;exitDx=0;exitDy=0;entryX=0;entryY=0.5;entryDx=0;entryDy=0;shadow=1;fontSize=14;endArrow=ERone;endFill=0;fillColor=#d80073;strokeColor=#A50040;" edge="1" parent="1" source="49" target="73">
                    <mxGeometry relative="1" as="geometry"/>
                </mxCell>
                <mxCell id="49" value="&lt;div style=&quot;text-align: left;&quot;&gt;&lt;span style=&quot;background-color: initial;&quot;&gt;path: &quot;/patient-list&quot;&lt;/span&gt;&lt;/div&gt;&lt;div style=&quot;text-align: left;&quot;&gt;&lt;span style=&quot;background-color: initial;&quot;&gt;Componenet: &amp;lt;PatientList/&amp;gt;&lt;/span&gt;&lt;/div&gt;" style="rounded=1;whiteSpace=wrap;html=1;fillColor=#d80073;fontColor=#ffffff;strokeColor=#A50040;" vertex="1" parent="1">
                    <mxGeometry x="810" y="700" width="240" height="60" as="geometry"/>
                </mxCell>
                <mxCell id="50" value="&lt;div style=&quot;text-align: left;&quot;&gt;&lt;span style=&quot;background-color: initial;&quot;&gt;path: &quot;/previous-scans&quot;&lt;/span&gt;&lt;/div&gt;&lt;div style=&quot;text-align: left;&quot;&gt;&lt;span style=&quot;background-color: initial;&quot;&gt;Componenet: &amp;lt;PreviousScans/&amp;gt;&lt;/span&gt;&lt;/div&gt;" style="rounded=1;whiteSpace=wrap;html=1;fillColor=#d80073;fontColor=#ffffff;strokeColor=#A50040;" vertex="1" parent="1">
                    <mxGeometry x="810" y="610" width="240" height="60" as="geometry"/>
                </mxCell>
                <mxCell id="73" value="&lt;div style=&quot;text-align: left;&quot;&gt;&lt;span style=&quot;background-color: initial;&quot;&gt;path: &quot;/patient-list/:id&quot;&lt;/span&gt;&lt;/div&gt;&lt;div style=&quot;text-align: left;&quot;&gt;&lt;span style=&quot;background-color: initial;&quot;&gt;Componenet: &amp;lt;PatientDetails/&amp;gt;&lt;/span&gt;&lt;/div&gt;" style="rounded=1;whiteSpace=wrap;html=1;fillColor=#d80073;fontColor=#ffffff;strokeColor=#A50040;" vertex="1" parent="1">
                    <mxGeometry x="1160" y="700" width="240" height="60" as="geometry"/>
                </mxCell>
                <mxCell id="75" style="edgeStyle=orthogonalEdgeStyle;curved=1;sketch=1;html=1;exitX=0;exitY=0.5;exitDx=0;exitDy=0;entryX=1;entryY=0.5;entryDx=0;entryDy=0;shadow=1;fontSize=14;endArrow=ERone;endFill=0;fillColor=#d80073;strokeColor=#A50040;" edge="1" parent="1" source="74" target="41">
                    <mxGeometry relative="1" as="geometry"/>
                </mxCell>
                <mxCell id="74" value="&lt;div style=&quot;text-align: left;&quot;&gt;&lt;span style=&quot;background-color: initial;&quot;&gt;path: &quot;/result&quot;&lt;/span&gt;&lt;/div&gt;&lt;div style=&quot;text-align: left;&quot;&gt;&lt;span style=&quot;background-color: initial;&quot;&gt;Componenet: &amp;lt;ImageResult/&amp;gt;&lt;/span&gt;&lt;/div&gt;" style="rounded=1;whiteSpace=wrap;html=1;fillColor=#d80073;fontColor=#ffffff;strokeColor=#A50040;" vertex="1" parent="1">
                    <mxGeometry x="810" y="790" width="240" height="60" as="geometry"/>
                </mxCell>
                <mxCell id="78" value="&lt;div style=&quot;text-align: left;&quot;&gt;&lt;span style=&quot;background-color: initial;&quot;&gt;path: &quot;/bookmarks&quot;&lt;/span&gt;&lt;/div&gt;&lt;div style=&quot;text-align: left;&quot;&gt;&lt;span style=&quot;background-color: initial;&quot;&gt;Componenet: &amp;lt;Bookmarks/&amp;gt;&lt;/span&gt;&lt;/div&gt;" style="rounded=1;whiteSpace=wrap;html=1;fillColor=#d80073;fontColor=#ffffff;strokeColor=#A50040;" vertex="1" parent="1">
                    <mxGeometry x="810" y="880" width="240" height="60" as="geometry"/>
                </mxCell>
                <mxCell id="81" value="&lt;div style=&quot;text-align: left;&quot;&gt;&lt;font style=&quot;font-size: 18px;&quot;&gt;Navigate&lt;/font&gt;&lt;/div&gt;" style="rounded=1;whiteSpace=wrap;html=1;" vertex="1" parent="1">
                    <mxGeometry x="380" y="200" width="160" height="60" as="geometry"/>
                </mxCell>
                <mxCell id="35" value="Protected" style="rounded=1;whiteSpace=wrap;html=1;dashed=1;dashPattern=12 12;strokeWidth=0;rotation=90;" vertex="1" parent="1">
                    <mxGeometry x="300" y="380" width="80" height="30" as="geometry"/>
                </mxCell>
                <mxCell id="85" value="&lt;div style=&quot;text-align: left;&quot;&gt;&lt;font style=&quot;font-size: 14px;&quot;&gt;Protected&lt;/font&gt;&lt;/div&gt;" style="rounded=1;whiteSpace=wrap;html=1;fillColor=#d80073;fontColor=#ffffff;strokeColor=#A50040;" vertex="1" parent="1">
                    <mxGeometry x="410" y="250" width="100" height="40" as="geometry"/>
                </mxCell>
                <mxCell id="86" value="&lt;div style=&quot;text-align: left;&quot;&gt;&lt;span style=&quot;font-size: 14px;&quot;&gt;Private&lt;/span&gt;&lt;/div&gt;" style="rounded=1;whiteSpace=wrap;html=1;fillColor=#60a917;fontColor=#ffffff;strokeColor=#2D7600;" vertex="1" parent="1">
                    <mxGeometry x="410" y="170" width="100" height="40" as="geometry"/>
                </mxCell>
                <mxCell id="89" style="edgeStyle=orthogonalEdgeStyle;curved=1;sketch=1;html=1;exitX=0;exitY=0.5;exitDx=0;exitDy=0;entryX=1;entryY=0.5;entryDx=0;entryDy=0;shadow=1;fontSize=18;endArrow=ERone;endFill=0;" edge="1" parent="1" source="88" target="3">
                    <mxGeometry relative="1" as="geometry"/>
                </mxCell>
                <mxCell id="88" value="&lt;div style=&quot;text-align: left;&quot;&gt;&lt;span style=&quot;background-color: initial;&quot;&gt;path: &quot;*&quot;&lt;/span&gt;&lt;/div&gt;&lt;div style=&quot;text-align: left;&quot;&gt;&lt;span style=&quot;background-color: initial;&quot;&gt;Componenet: &amp;lt;NotFound/&amp;gt;&lt;/span&gt;&lt;/div&gt;" style="rounded=1;whiteSpace=wrap;html=1;fillColor=#60a917;fontColor=#ffffff;strokeColor=#2D7600;" vertex="1" parent="1">
                    <mxGeometry x="460" width="240" height="60" as="geometry"/>
                </mxCell>
                <mxCell id="34" value="Public" style="rounded=1;whiteSpace=wrap;html=1;dashed=1;dashPattern=12 12;strokeWidth=0;rotation=-80;" vertex="1" parent="1">
                    <mxGeometry x="330" y="100" width="70" height="30" as="geometry"/>
                </mxCell>
            </root>
        </mxGraphModel>
    </diagram>
</mxfile>